<?xml version="1.0" encoding="utf-8"?>
<!-- Generator: Adobe Illustrator 21.0.0, SVG Export Plug-In . SVG Version: 6.00 Build 0)  -->
<svg version="1.1" id="Layer_1" xmlns="http://www.w3.org/2000/svg" xmlns:xlink="http://www.w3.org/1999/xlink" x="0px" y="0px"
	 viewBox="0 0 451.5 105" style="enable-background:new 0 0 451.5 105;" xml:space="preserve">
<style type="text/css">
	.st0{fill:#444C2F;}
	.st1{fill:#73B243;}
</style>
<g>
	<path class="st0" d="M49.4,37.8c-1.3-0.4-1.8-8.2,2.4-13.7c5.3-6.8,15.1-6.2,16.4-6.1c-1.1,2.2-2.3,3.9-3.1,5.2
		c-1.9,2.7-3.2,4.6-5.5,6.2c-1.3,0.9-1.5,0.7-2.9,1.6C51.6,34,50.4,38.1,49.4,37.8z"/>
	<g>
		<g>
			<path class="st0" d="M56.1,55.4c-0.9,0.3-2,0.5-3.3,0.6C51.5,56,50.7,56,50.3,56c-0.1,1.5-0.2,3.3-0.3,5.2
				c-0.2,1.9-0.3,3.5-0.4,4.7l-0.2,2.3l-0.2,2.4l-0.4,5.8c-0.2,2.5-1,3.8-2.5,3.8c-0.5,0-1.1-0.6-1.6-1.9c-0.5-1.3-0.8-2.3-0.8-3.1
				c0-0.2,0.2-0.6,0.6-1.2c0.4-0.6,0.6-1.3,0.7-2.2c0.2-1.4,0.4-3.7,0.7-7c0.2-3.2,0.4-6,0.5-8.2c-1.9,0.2-4,0.4-6.3,0.7
				c-1,0.1-3.2,0.3-6.7,0.7c-3.5,0.4-6.2,0.6-8.2,0.7c-0.2,3.3-0.4,7.3-0.7,12.1s-0.4,7.6-0.4,8.7c0,0.4,0.1,0.9,0.2,1.6
				c0.1,0.6,0.2,1.1,0.2,1.5c0,0.4-0.3,0.9-1,1.3c-0.7,0.4-1.2,0.7-1.6,0.7c-0.5,0-0.9-0.3-1.2-1c-0.3-0.6-0.5-1.4-0.5-2.2
				c0-0.4,0-1.2,0.1-2.2c0.1-1,0.2-1.9,0.2-2.7c0.2-1.3,0.3-2.4,0.4-3.3c0.2-2.9,0.4-5.8,0.6-8.5c0.2-2.7,0.2-4.6,0.3-5.5
				c-3.1,0.6-6.1,0.8-8.9,0.8c-0.9,0-1.8-0.2-2.4-0.7c-0.7-0.5-1-1.2-1-2.1c0-0.6,0.2-1.1,0.5-1.5c0.3-0.3,1-0.5,2-0.5l4,0.1
				c2.6,0.1,4.7,0.2,6.3,0.2c0.2-4.2,0.4-7.6,0.4-10.2c0-5.8,0-11-0.1-15.6v-2.8c0-0.7,0.3-1.4,0.9-1.8c0.6-0.5,1.2-0.7,2-0.7
				c0.5,0,0.9,0.4,1.1,1.3c0.2,0.8,0.3,1.8,0.3,2.8c0,1.1-0.1,3.3-0.4,6.7c-0.3,5.8-0.4,8.9-0.4,9.2l-0.4,10.7
				c4.2-0.1,11.3-0.7,21.3-1.9c0.2-1.4,0.5-5.2,1-11.4c0.2-3.2,0.4-5.6,0.5-7.1l0.4-5.8c0.6-7.3,1-11.9,1-13.8
				c0-0.6,0.2-1.2,0.7-1.6c0.5-0.4,1.1-0.6,1.7-0.6c0.9,0,1.3,0.9,1.3,2.6c0,1.1-0.2,4-0.7,8.8c-0.5,6.2-0.8,9.6-0.9,10.3
				c-0.3,3.8-0.6,7.5-0.9,11c-0.3,3.5-0.5,5.8-0.6,7c0.9-0.2,1.7-0.4,2.4-0.7c0.9-0.3,1.6-0.4,2.1-0.4c0.5,0,1.1,0.3,1.7,0.9
				c0.6,0.6,1,1,1,1.3C57.8,54.4,57.2,55,56.1,55.4z"/>
			<path class="st0" d="M94.7,56c0,0.9-0.7,2.9-2,5.9c-1.3,3-3.3,5.9-6,8.5c-2.7,2.6-6,3.9-9.8,3.9c-3.2,0-5.9-1-8-3
				c-2.1-2-3.2-5.1-3.2-9.2c0-3.9,0.9-7.7,2.7-11.6c1.8-3.8,4.1-6.9,7-9.4c2.9-2.4,5.9-3.6,9-3.6c1.8,0,3.4,0.4,4.7,1.2
				c1.3,0.8,1.9,2,1.9,3.6c0,1.7-1,3.4-3,5.1c-2,1.6-4.5,3.1-7.7,4.3c-3.1,1.2-6.4,2.1-9.7,2.7c-0.6,2.3-0.9,4.5-0.9,6.7
				c0,2.9,0.7,5.1,2.1,6.7c1.4,1.6,3.3,2.4,5.9,2.4c3.8,0,7-1.4,9.4-4.1c2.4-2.7,4.4-5.8,6-9.3c0.1-0.2,0.3-0.6,0.5-1.2
				c0.2-0.6,0.5-0.9,0.7-0.9C94.5,54.9,94.7,55.3,94.7,56z M86.3,41.3c-0.8-0.4-1.8-0.7-2.9-0.7c-1.9,0-3.7,0.6-5.5,1.9
				c-1.7,1.2-3.2,2.7-4.4,4.5c-1.2,1.7-1.9,3.3-2.3,4.6c2.3-0.2,4.7-0.9,7.3-1.9c2.5-1,4.7-2.2,6.4-3.4c1.7-1.2,2.6-2.3,2.6-3.1
				C87.6,42.4,87.2,41.7,86.3,41.3z"/>
			<path class="st0" d="M132.2,70.3c0.3,0.4,0.5,0.7,0.5,0.9c0,0.6-0.2,1.3-0.7,2.1c-0.5,0.8-1,1.2-1.5,1.2c-0.9,0-1.5-0.5-1.9-1.6
				c-0.4-1-0.7-2.3-0.7-3.7c0-1.2,0.1-4.8,0.2-10.8l0.1-2.8c0-1.1-0.3-2-0.9-2.5c-2.2,3.8-4.3,7.1-6.3,9.9c-1.9,2.8-4.4,5.4-7.4,7.9
				c-3,2.5-6.1,3.7-9.4,3.7c-1.6,0-2.8-0.5-3.7-1.5c-0.9-1-1.3-2.3-1.3-3.9c0-2,0.9-4.7,2.7-8.2c1.8-3.5,4.1-7,6.9-10.6
				c2.8-3.6,5.6-6.5,8.4-8.8c1.8-1.5,3.3-2.5,4.4-3c1.1-0.5,2.1-0.8,2.9-0.8c0.8,0,1.6,0.3,2.5,0.7c0.8,0.5,1.6,1.2,2.2,2.1
				c0.6,0.9,0.9,1.9,0.9,3.1c0,1.5-0.4,3-1.3,4.4l1.3-0.4c0.5,0,0.9,0.7,1,2c0,0.8,0.1,2.4,0.2,4.9c0.1,2.4,0.1,4.5,0.2,6.1
				c0,1.6,0.1,3.2,0.1,4.8c0,1.5,0.1,2.8,0.2,3.7C131.6,69.6,131.8,69.9,132.2,70.3z M113,67.6c2.5-2,4.7-4.4,6.7-7.2
				c2-2.8,4.2-6.2,6.6-10.2c0.6-1.5,0.9-3.1,0.9-4.9c0-1-0.3-2-0.9-2.7c-0.6-0.8-1.5-1.2-2.5-1.2c-1.2,0-2.8,0.9-4.8,2.5
				c-2.2,1.9-4.6,4.4-7.1,7.6c-2.5,3.2-4.6,6.3-6.2,9.4c-1.6,3.1-2.5,5.5-2.5,7.3c0,1.5,0.7,2.2,2.1,2.2
				C107.9,70.6,110.5,69.6,113,67.6z"/>
			<path class="st0" d="M146.5,73.2c-0.6,0.3-1.4,0.4-2.2,0.4c-0.6,0-1.2-0.7-1.7-2.1s-0.8-3.6-0.8-6.5c0-5.6,0.1-12.5,0.3-20.4
				c0.1-8,0.2-14,0.3-18c0-1.4,0.3-2.8,0.8-4c0.5-1.2,1.3-1.9,2.5-1.9c0.4,0,0.7,0.2,0.8,0.6c0.1,0.4,0.2,1.2,0.2,2.4
				c0,0,0,0.2,0,0.5c0,0.3,0,0.8,0,1.5c-0.9,13.1-1.3,25.9-1.3,38.4c0,1.6,0.4,3.3,1.1,5.1c0.7,1.8,1.1,2.7,1.1,2.8
				C147.5,72.5,147.1,72.9,146.5,73.2z"/>
			<path class="st0" d="M187.3,45c-0.7,0.4-2,0.8-3.9,1c-4.6,0.8-7.2,1.2-7.7,1.3l-4.9,0.8c0,2.6,0,5.3,0.1,8.2
				c0.1,2.8,0.2,5.3,0.3,7.5c0.2,2.9,0.5,5.1,1,6.7c0.5,1.5,0.8,2.4,0.8,2.6c0,0.5-0.3,1-0.9,1.4c-0.6,0.4-1.2,0.6-1.8,0.6
				c-0.3,0-0.6-0.1-0.7-0.3c-0.2-0.2-0.4-0.5-0.5-0.9c-0.3-0.7-0.6-2-0.9-3.9c-0.3-1.9-0.5-4-0.6-6.3c-0.1-2-0.3-4.4-0.3-7.2
				c-0.1-2.7-0.1-5.4-0.1-7.9c-2.8,0.4-5.7,1-8.6,1.6c-2.6,0.5-4.2,0.8-4.7,0.8c-0.6,0-1.2-0.2-1.7-0.5s-0.8-0.8-0.8-1.4
				c0-0.6,0.2-1.1,0.7-1.3c0.4-0.2,1.2-0.3,2.2-0.3c0.7,0,1.8-0.1,3.3-0.4c1.4-0.3,2.4-0.5,2.8-0.6c3.3-0.6,5.6-1.1,6.8-1.3
				c0-1-0.1-2.4-0.2-4.1c-0.1-2.3-0.1-4-0.1-5.2c0-1.9,0.1-3.5,0.2-4.5c0.1-1.1,0.4-2,0.7-2.9c0.4-1,1.1-1.5,2.2-1.5
				c0.4,0,0.7,0.1,0.9,0.2c0.1,0.2,0.2,0.4,0.2,0.8c0,0.3-0.1,1.2-0.4,2.6c-0.3,1.4-0.4,3.4-0.4,5.8c0,1.8,0,3.9,0.1,6.2l0.1,2
				c2.2-0.3,6.7-1.3,13.3-2.8c0.4-0.1,0.7-0.4,1-1c0.3-0.6,0.6-0.9,0.9-0.9c0.5,0,1.1,0.3,1.7,0.9c0.6,0.6,0.9,1.3,0.9,1.9
				C188.4,43.9,188,44.5,187.3,45z"/>
			<path class="st0" d="M224.2,76.6c-0.4,0.4-0.9,0.6-1.6,0.6c-0.5,0-0.9-0.1-1.3-0.3c-0.3-0.2-0.5-0.5-0.5-0.9l0.1-5.2
				c0.2-6.1,0.4-11.2,0.4-15.1c0-5.7-0.4-9.7-1.2-11.9c-0.8-2.3-1.7-3.4-2.8-3.4c-2.3,0-5.3,3.6-8.8,10.9c-3.5,7.3-7,15.2-10.3,23.8
				c-0.3,0.7-0.6,1.4-1,2c-0.4,0.6-0.9,1-1.3,1c-1.1,0-1.6-0.3-1.6-1c0-3-0.1-8.7-0.4-17.1c-0.3-8.4-0.4-13.9-0.6-16.5
				c-0.4-8.9-0.9-14.5-1.3-16.5c-0.4-2.1-0.6-3.2-0.6-3.4c0-0.5,0.3-0.9,0.8-1.1c0.5-0.2,1.2-0.4,2.1-0.4c0.7,0,1.2,1.6,1.5,4.8
				c0.3,3.2,0.6,7.2,0.7,12.2l0.1,2.1c0.1,1.5,0.2,6,0.2,13.3c0,7.3,0.1,12.7,0.1,16.1c2.3-5.7,4.5-10.9,6.5-15.3
				c2-4.5,4.4-8.7,7-12.6c2.6-3.9,5.1-5.9,7.3-5.9c1.9,0,3.5,1.6,4.8,4.8c1.3,3.2,1.9,7.9,1.9,14.2c0,2.8,0,6.7,0.2,11.7l0.1,7.9
				C224.8,75.7,224.6,76.2,224.2,76.6z"/>
			<path class="st0" d="M258,48.4c-0.6,4.4-0.9,6.9-1,7.4c-0.6,6.1-1.1,10.8-1.4,14c-0.3,3.2-0.4,6.1-0.4,8.7c0,2.1,0.2,3.8,0.5,5.1
				c0.3,1.2,0.7,2.2,1,3c0.4,0.7,0.6,1.2,0.6,1.3c0,0.4-0.4,0.8-1.2,1.2c-0.8,0.3-1.6,0.5-2.5,0.5c-0.6,0-1.2-0.9-1.5-2.6
				c-0.4-1.7-0.6-4.5-0.6-8.2c0-2.8,0.3-6.6,0.8-11.3l1.1-10.3c-1.3,2.6-3,5.1-5,7.4c-2,2.4-4,3.6-6.1,3.6c-1.9,0-3.7-1.7-5.2-5.1
				c-1.5-3.4-2.8-7.2-3.6-11.5c-0.9-4.3-1.3-7.4-1.3-9.4c0-1.2,0.4-1.9,1.1-1.9c1.1,0,1.8,1,2.1,3.1c1.9,13.9,4.5,20.8,7.9,20.8
				c1.3,0,2.5-0.5,3.6-1.6c1-1.1,2.2-2.7,3.6-5c0.6-1,1.3-2.4,2.1-4.2c0.7-1.7,1.3-3.2,1.7-4.3l0.5-7.6c0.1-1.1,0.2-2,0.4-2.4
				c0.2-0.5,0.6-0.7,1.2-0.7c0.5,0,1,0.3,1.5,0.9c0.5,0.6,0.7,1.1,0.7,1.7C258.8,42.1,258.5,44.6,258,48.4z"/>
			<path class="st0" d="M319.3,45.4c-2.4,2.1-5.7,4.1-10,6c-1.5,0.7-3.1,1.3-4.7,1.9c-1.6,0.6-2.6,1-3.1,1.1
				c0.2,6.1,0.4,11.3,0.4,15.6c0,1.4,0.2,2.5,0.5,3.4c0.3,0.9,0.5,1.4,0.5,1.7c0,0.5-0.3,1-0.8,1.4c-0.5,0.4-1.1,0.6-1.7,0.6
				c-0.7,0-1.2-0.5-1.4-1.6c0-0.1-0.1-0.6-0.2-1.3c-0.1-0.8-0.2-1.9-0.2-3.4c0-3.9-0.2-10.3-0.4-19.2c-0.2-4.5-0.2-7.7-0.2-9.6
				c0-1.6,0-3.1,0.1-4.5c0-1.4,0.1-2.3,0.1-2.8c-3.1,0.8-5.9,1.7-8.2,2.6c-0.7,0.3-1.8,0.9-3.1,1.7c-0.6,0.3-1.2,0.7-1.8,1
				c-0.6,0.3-1,0.4-1.3,0.4c-0.4,0-0.7-0.2-1-0.5c-0.3-0.3-0.4-0.8-0.4-1.3c0-0.6,0.9-1.5,2.8-2.4c1.9-1,4.2-1.9,6.9-2.8
				c2.7-0.9,5.2-1.6,7.5-2c2.7-0.5,5.7-0.7,9-0.7c4.5,0,8.1,0.6,10.7,1.8c2.6,1.2,3.9,2.9,3.9,5.3C322.9,40.7,321.7,43.2,319.3,45.4
				z M316.2,34.8c-2.1-0.7-4.8-1-7.9-1c-2.3,0-4.6,0.2-7,0.4c-0.1,0.4-0.1,1.3-0.2,2.8c-0.1,1.4-0.1,2.8-0.1,4.1l0.1,5.5
				c0,1.2,0.1,2.7,0.1,4.6c1-0.1,3.3-0.8,6.7-2.2c3.3-1.4,6.1-3.1,8.3-4.8c2.2-1.8,3.4-3.7,3.4-5.7
				C319.5,36.7,318.4,35.5,316.2,34.8z"/>
			<path class="st0" d="M360.6,70.3c0.3,0.4,0.5,0.7,0.5,0.9c0,0.6-0.3,1.3-0.7,2.1c-0.5,0.8-1,1.2-1.5,1.2c-0.9,0-1.5-0.5-1.9-1.6
				c-0.4-1-0.7-2.3-0.7-3.7c0-1.2,0.1-4.8,0.2-10.8l0.1-2.8c0-1.1-0.3-2-0.9-2.5c-2.2,3.8-4.3,7.1-6.3,9.9c-1.9,2.8-4.4,5.4-7.4,7.9
				c-3,2.5-6.1,3.7-9.4,3.7c-1.6,0-2.8-0.5-3.7-1.5c-0.9-1-1.3-2.3-1.3-3.9c0-2,0.9-4.7,2.7-8.2c1.8-3.5,4.1-7,6.9-10.6
				c2.8-3.6,5.6-6.5,8.4-8.8c1.8-1.5,3.3-2.5,4.4-3c1.1-0.5,2.1-0.8,2.9-0.8c0.8,0,1.6,0.3,2.5,0.7c0.8,0.5,1.6,1.2,2.2,2.1
				c0.6,0.9,0.9,1.9,0.9,3.1c0,1.5-0.4,3-1.3,4.4l1.3-0.4c0.5,0,0.9,0.7,1,2c0,0.8,0.1,2.4,0.2,4.9c0.1,2.4,0.1,4.5,0.2,6.1
				c0,1.6,0.1,3.2,0.2,4.8c0,1.5,0.1,2.8,0.2,3.7C360,69.6,360.2,69.9,360.6,70.3z M341.3,67.6c2.5-2,4.7-4.4,6.7-7.2
				c2-2.8,4.2-6.2,6.6-10.2c0.6-1.5,0.9-3.1,0.9-4.9c0-1-0.3-2-0.9-2.7c-0.6-0.8-1.5-1.2-2.5-1.2c-1.2,0-2.8,0.9-4.8,2.5
				c-2.2,1.9-4.6,4.4-7.1,7.6c-2.5,3.2-4.6,6.3-6.2,9.4c-1.6,3.1-2.5,5.5-2.5,7.3c0,1.5,0.7,2.2,2.1,2.2
				C336.2,70.6,338.8,69.6,341.3,67.6z"/>
			<path class="st0" d="M399.6,83.9c-1.5,3.2-3.4,5.8-5.5,7.8c-2.1,2-4.4,3.7-6.7,5c-2.3,1.3-4.3,1.9-6,1.9c-0.9,0-1.6-0.2-2-0.7
				c-0.4-0.5-0.6-1-0.6-1.7c0-0.6,1.1-1.3,3.4-2.1c3.4-1.1,6.5-2.9,9.4-5.5c2.2-2,3.9-4.3,4.9-6.8c1-2.5,1.6-5.1,1.6-7.8
				c0-3-0.2-5.7-0.6-8.2c-0.4-2.5-1-5.6-1.8-9.2c-0.9-3.8-1.5-7.1-1.9-9.8c-0.8,2.3-2.2,5.1-3.9,8.3c-1.8,3.2-3.9,6.4-6.3,9.4
				c-2.3,2.8-4.4,5-6.3,6.4c-1.9,1.4-3.7,2.1-5.4,2.1c-1.5,0-2.6-0.6-3.3-1.8s-1.1-2.8-1.1-4.8c0-3.4,1-7.4,3.1-12
				c2.1-4.6,4.7-8.5,7.9-11.8c3.1-3.3,6.2-4.9,9.3-4.9c1,0,1.9,0.4,2.4,1.1c0.6,0.7,0.9,1.6,0.9,2.7c0,1.3-0.3,2-0.8,2
				c-0.2,0-0.3-0.2-0.6-0.6c-0.2-0.4-0.5-0.7-0.8-1c-0.3-0.3-0.6-0.4-1-0.4c-2.5,0-5.1,1.4-7.8,4.3c-2.6,2.8-4.8,6.2-6.5,10
				s-2.6,7-2.6,9.4c0,1.3,0.2,2.3,0.6,2.9s1,0.9,1.8,0.9c1.2,0,2.6-0.7,4.3-2.1c1.7-1.4,3.7-3.6,6.1-6.6c2.1-2.6,4-5.7,5.7-9.2
				c1.7-3.5,3-6.9,3.9-10.1c0.1-0.3,0.3-0.5,0.5-0.7c0.2-0.2,0.5-0.3,0.8-0.3c0.5,0,0.9,0.1,1.4,0.4c0.5,0.3,0.7,0.6,0.7,0.9
				c0,0.2,0,0.4-0.1,0.6c-0.1,0.2-0.1,0.4-0.2,0.4c0.3,2.7,1.2,7,2.5,12.8c0.9,4.1,1.7,7.5,2.1,10.3c0.5,2.8,0.7,5.5,0.7,8.1
				C401.9,77.1,401.1,80.7,399.6,83.9z"/>
			<path class="st0" d="M438,56c0,0.9-0.7,2.9-2,5.9c-1.3,3-3.3,5.9-6,8.5c-2.7,2.6-6,3.9-9.8,3.9c-3.2,0-5.9-1-8-3
				c-2.1-2-3.2-5.1-3.2-9.2c0-3.9,0.9-7.7,2.7-11.6c1.8-3.8,4.1-6.9,7-9.4c2.9-2.4,5.9-3.6,9-3.6c1.8,0,3.4,0.4,4.7,1.2
				c1.3,0.8,1.9,2,1.9,3.6c0,1.7-1,3.4-3,5.1c-2,1.6-4.5,3.1-7.7,4.3c-3.1,1.2-6.4,2.1-9.7,2.7c-0.6,2.3-0.9,4.5-0.9,6.7
				c0,2.9,0.7,5.1,2.1,6.7c1.4,1.6,3.3,2.4,5.9,2.4c3.8,0,7-1.4,9.4-4.1c2.4-2.7,4.4-5.8,6-9.3c0.1-0.2,0.3-0.6,0.5-1.2
				c0.2-0.6,0.5-0.9,0.7-0.9C437.8,54.9,438,55.3,438,56z M429.6,41.3c-0.8-0.4-1.8-0.7-2.9-0.7c-1.9,0-3.7,0.6-5.5,1.9
				c-1.7,1.2-3.2,2.7-4.4,4.5c-1.2,1.7-1.9,3.3-2.3,4.6c2.3-0.2,4.7-0.9,7.3-1.9c2.5-1,4.7-2.2,6.4-3.4c1.7-1.2,2.6-2.3,2.6-3.1
				C430.9,42.4,430.5,41.7,429.6,41.3z"/>
		</g>
	</g>
	<g>
		<g>
			<path class="st1" d="M55.5,55.2c-0.9,0.3-2,0.5-3.3,0.6c-1.3,0.1-2.1,0.1-2.5,0.1c-0.1,1.5-0.2,3.3-0.3,5.2
				c-0.2,1.9-0.3,3.5-0.4,4.7l-0.2,2.3l-0.2,2.4l-0.4,5.8c-0.2,2.5-1,3.8-2.5,3.8c-0.5,0-1.1-0.6-1.6-1.9c-0.5-1.3-0.8-2.3-0.8-3.1
				c0-0.2,0.2-0.6,0.6-1.2c0.4-0.6,0.6-1.3,0.7-2.2c0.2-1.4,0.4-3.7,0.7-7c0.2-3.2,0.4-6,0.5-8.2c-1.9,0.2-4,0.4-6.3,0.7
				c-1,0.1-3.2,0.3-6.7,0.7c-3.5,0.4-6.2,0.6-8.2,0.7c-0.2,3.3-0.4,7.3-0.7,12.1c-0.2,4.7-0.4,7.6-0.4,8.7c0,0.4,0.1,0.9,0.2,1.6
				c0.1,0.6,0.2,1.1,0.2,1.5c0,0.4-0.3,0.9-1,1.3c-0.7,0.4-1.2,0.7-1.6,0.7c-0.5,0-0.9-0.3-1.2-1c-0.3-0.6-0.5-1.4-0.5-2.2
				c0-0.4,0-1.2,0.1-2.2c0.1-1,0.2-1.9,0.2-2.7c0.2-1.3,0.3-2.4,0.4-3.3c0.2-2.9,0.4-5.8,0.6-8.5c0.2-2.7,0.2-4.6,0.3-5.5
				c-3.1,0.6-6.1,0.8-8.9,0.8c-0.9,0-1.8-0.2-2.4-0.7c-0.7-0.5-1-1.2-1-2.1c0-0.6,0.2-1.1,0.5-1.5c0.3-0.3,1-0.5,2-0.5l4,0.1
				c2.6,0.1,4.7,0.2,6.3,0.2C21.9,51,22,47.6,22,45.1c0-5.8,0-11-0.1-15.6v-2.8c0-0.7,0.3-1.4,0.9-1.8c0.6-0.5,1.2-0.7,2-0.7
				c0.5,0,0.9,0.4,1.1,1.3c0.2,0.8,0.3,1.8,0.3,2.8c0,1.1-0.1,3.3-0.4,6.7c-0.3,5.8-0.4,8.9-0.4,9.2l-0.4,10.7
				c4.2-0.1,11.3-0.7,21.3-1.9c0.2-1.4,0.5-5.2,1-11.4c0.2-3.2,0.4-5.6,0.5-7.1l0.4-5.8c0.6-7.3,1-11.9,1-13.8
				c0-0.6,0.2-1.2,0.7-1.6c0.5-0.4,1.1-0.6,1.7-0.6c0.9,0,1.3,0.9,1.3,2.6c0,1.1-0.2,4-0.7,8.8c-0.5,6.2-0.8,9.6-0.9,10.3
				c-0.3,3.8-0.6,7.5-0.9,11c-0.3,3.5-0.5,5.8-0.6,7c0.9-0.2,1.7-0.4,2.4-0.7c0.9-0.3,1.6-0.4,2.1-0.4c0.5,0,1.1,0.3,1.7,0.9
				c0.6,0.6,1,1,1,1.3C57.2,54.3,56.6,54.9,55.5,55.2z"/>
			<path class="st1" d="M94.1,55.9c0,0.9-0.7,2.9-2,5.9c-1.3,3-3.3,5.9-6,8.5c-2.7,2.6-6,3.9-9.8,3.9c-3.2,0-5.9-1-8-3
				c-2.1-2-3.2-5.1-3.2-9.2c0-3.9,0.9-7.7,2.7-11.6c1.8-3.8,4.1-6.9,7-9.4c2.9-2.4,5.9-3.6,9-3.6c1.8,0,3.4,0.4,4.7,1.2
				c1.3,0.8,1.9,2,1.9,3.6c0,1.7-1,3.4-3,5.1c-2,1.6-4.5,3.1-7.7,4.3c-3.1,1.2-6.4,2.1-9.7,2.7c-0.6,2.3-0.9,4.5-0.9,6.7
				c0,2.9,0.7,5.1,2.1,6.7c1.4,1.6,3.3,2.4,5.9,2.4c3.8,0,7-1.4,9.4-4.1c2.4-2.7,4.4-5.8,6-9.3c0.1-0.2,0.3-0.6,0.5-1.2
				c0.2-0.6,0.5-0.9,0.7-0.9C94,54.8,94.1,55.2,94.1,55.9z M85.8,41.2c-0.8-0.4-1.8-0.7-2.9-0.7c-1.9,0-3.7,0.6-5.5,1.9
				c-1.7,1.2-3.2,2.7-4.4,4.5c-1.2,1.7-1.9,3.3-2.3,4.6c2.3-0.2,4.7-0.9,7.3-1.9c2.5-1,4.7-2.2,6.4-3.4c1.7-1.2,2.6-2.3,2.6-3.1
				C87,42.2,86.6,41.6,85.8,41.2z"/>
			<path class="st1" d="M131.6,70.2c0.3,0.4,0.5,0.7,0.5,0.9c0,0.6-0.2,1.3-0.7,2.1c-0.5,0.8-1,1.2-1.5,1.2c-0.9,0-1.5-0.5-1.9-1.6
				c-0.4-1-0.7-2.3-0.7-3.7c0-1.2,0.1-4.8,0.2-10.8l0.1-2.8c0-1.1-0.3-2-0.9-2.5c-2.2,3.8-4.3,7.1-6.3,9.9c-1.9,2.8-4.4,5.4-7.4,7.9
				c-3,2.5-6.1,3.7-9.4,3.7c-1.6,0-2.8-0.5-3.7-1.5c-0.9-1-1.3-2.3-1.3-3.9c0-2,0.9-4.7,2.7-8.2c1.8-3.5,4.1-7,6.9-10.6
				c2.8-3.6,5.6-6.5,8.4-8.8c1.8-1.5,3.3-2.5,4.4-3c1.1-0.5,2.1-0.8,2.9-0.8c0.8,0,1.6,0.3,2.5,0.7c0.8,0.5,1.6,1.2,2.2,2.1
				c0.6,0.9,0.9,1.9,0.9,3.1c0,1.5-0.4,3-1.3,4.4l1.3-0.4c0.5,0,0.9,0.7,1,2c0,0.8,0.1,2.4,0.2,4.9c0.1,2.4,0.1,4.5,0.2,6.1
				c0,1.6,0.1,3.2,0.1,4.8c0,1.5,0.1,2.8,0.2,3.7C131.1,69.4,131.3,69.8,131.6,70.2z M112.4,67.4c2.5-2,4.7-4.4,6.7-7.2
				c2-2.8,4.2-6.2,6.6-10.2c0.6-1.5,0.9-3.1,0.9-4.9c0-1-0.3-2-0.9-2.7c-0.6-0.8-1.5-1.2-2.5-1.2c-1.2,0-2.8,0.9-4.8,2.5
				c-2.2,1.9-4.6,4.4-7.1,7.6c-2.5,3.2-4.6,6.3-6.2,9.4c-1.6,3.1-2.5,5.5-2.5,7.3c0,1.5,0.7,2.2,2.1,2.2
				C107.3,70.4,109.9,69.4,112.4,67.4z"/>
			<path class="st1" d="M145.9,73.1c-0.6,0.3-1.4,0.4-2.2,0.4c-0.6,0-1.2-0.7-1.7-2.1c-0.5-1.4-0.8-3.6-0.8-6.5
				c0-5.6,0.1-12.5,0.3-20.4c0.1-8,0.2-14,0.3-18c0-1.4,0.3-2.8,0.8-4c0.5-1.2,1.3-1.9,2.5-1.9c0.4,0,0.7,0.2,0.8,0.6
				c0.1,0.4,0.2,1.2,0.2,2.4c0,0,0,0.2,0,0.5c0,0.3,0,0.8,0,1.5c-0.9,13.1-1.3,25.9-1.3,38.4c0,1.6,0.4,3.3,1.1,5.1
				c0.7,1.8,1.1,2.7,1.1,2.8C146.9,72.4,146.6,72.8,145.9,73.1z"/>
			<path class="st1" d="M186.7,44.8c-0.7,0.4-2,0.8-3.9,1c-4.6,0.8-7.2,1.2-7.7,1.3l-4.9,0.8c0,2.6,0,5.3,0.1,8.2
				c0.1,2.8,0.2,5.3,0.3,7.5c0.2,2.9,0.5,5.1,1,6.7c0.5,1.5,0.8,2.4,0.8,2.6c0,0.5-0.3,1-0.9,1.4c-0.6,0.4-1.2,0.6-1.8,0.6
				c-0.3,0-0.6-0.1-0.7-0.3c-0.2-0.2-0.4-0.5-0.5-0.9c-0.3-0.7-0.6-2-0.9-3.9c-0.3-1.9-0.5-4-0.6-6.3c-0.1-2-0.3-4.4-0.3-7.2
				c-0.1-2.7-0.1-5.4-0.1-7.9c-2.8,0.4-5.7,1-8.6,1.6c-2.6,0.5-4.2,0.8-4.7,0.8c-0.6,0-1.2-0.2-1.7-0.5s-0.8-0.8-0.8-1.4
				c0-0.6,0.2-1.1,0.7-1.3c0.4-0.2,1.2-0.3,2.2-0.3c0.7,0,1.8-0.1,3.3-0.4c1.4-0.3,2.4-0.5,2.8-0.6c3.3-0.6,5.6-1.1,6.8-1.3
				c0-1-0.1-2.4-0.2-4.1c-0.1-2.3-0.1-4-0.1-5.2c0-1.9,0.1-3.5,0.2-4.5c0.1-1.1,0.4-2,0.7-2.9c0.4-1,1.1-1.5,2.2-1.5
				c0.4,0,0.7,0.1,0.9,0.2c0.1,0.2,0.2,0.4,0.2,0.8c0,0.3-0.1,1.2-0.4,2.6c-0.3,1.4-0.4,3.4-0.4,5.8c0,1.8,0,3.9,0.1,6.2l0.1,2
				c2.2-0.3,6.7-1.3,13.3-2.8c0.4-0.1,0.7-0.4,1-1c0.3-0.6,0.6-0.9,0.9-0.9c0.5,0,1.1,0.3,1.7,0.9c0.6,0.6,0.9,1.3,0.9,1.9
				C187.8,43.7,187.4,44.4,186.7,44.8z"/>
			<path class="st1" d="M223.7,76.5c-0.4,0.4-0.9,0.6-1.6,0.6c-0.5,0-0.9-0.1-1.3-0.3c-0.3-0.2-0.5-0.5-0.5-0.9l0.1-5.2
				c0.2-6.1,0.4-11.2,0.4-15.1c0-5.7-0.4-9.7-1.2-11.9c-0.8-2.3-1.7-3.4-2.8-3.4c-2.3,0-5.3,3.6-8.8,10.9c-3.5,7.3-7,15.2-10.3,23.8
				c-0.3,0.7-0.6,1.4-1,2c-0.4,0.6-0.9,1-1.3,1c-1.1,0-1.6-0.3-1.6-1c0-3-0.1-8.7-0.4-17.1c-0.3-8.4-0.4-13.9-0.6-16.5
				c-0.4-8.9-0.9-14.5-1.3-16.5c-0.4-2.1-0.6-3.2-0.6-3.4c0-0.5,0.3-0.9,0.8-1.1c0.5-0.2,1.2-0.4,2.1-0.4c0.7,0,1.2,1.6,1.5,4.8
				c0.3,3.2,0.6,7.2,0.7,12.2l0.1,2.1c0.1,1.5,0.2,6,0.2,13.3c0,7.3,0.1,12.7,0.1,16.1c2.3-5.7,4.5-10.9,6.5-15.3
				c2-4.5,4.4-8.7,7-12.6c2.6-3.9,5.1-5.9,7.3-5.9c1.9,0,3.5,1.6,4.8,4.8c1.3,3.2,1.9,7.9,1.9,14.2c0,2.8,0,6.7,0.2,11.7l0.1,7.9
				C224.3,75.5,224.1,76,223.7,76.5z"/>
			<path class="st1" d="M257.4,48.3c-0.6,4.4-0.9,6.9-1,7.4c-0.6,6.1-1.1,10.8-1.4,14c-0.3,3.2-0.4,6.1-0.4,8.7
				c0,2.1,0.2,3.8,0.5,5.1c0.3,1.2,0.7,2.2,1,3c0.4,0.7,0.6,1.2,0.6,1.3c0,0.4-0.4,0.8-1.2,1.2c-0.8,0.3-1.6,0.5-2.5,0.5
				c-0.6,0-1.2-0.9-1.5-2.6c-0.4-1.7-0.6-4.5-0.6-8.2c0-2.8,0.3-6.6,0.8-11.3l1.1-10.3c-1.3,2.6-3,5.1-5,7.4c-2,2.4-4,3.6-6.1,3.6
				c-1.9,0-3.7-1.7-5.2-5.1c-1.5-3.4-2.8-7.2-3.6-11.5c-0.9-4.3-1.3-7.4-1.3-9.4c0-1.2,0.4-1.9,1.1-1.9c1.1,0,1.8,1,2.1,3.1
				c1.9,13.9,4.5,20.8,7.9,20.8c1.3,0,2.5-0.5,3.6-1.6c1-1.1,2.2-2.7,3.6-5c0.6-1,1.3-2.4,2.1-4.2c0.7-1.7,1.3-3.2,1.7-4.3l0.5-7.6
				c0.1-1.1,0.2-2,0.4-2.4c0.2-0.5,0.6-0.7,1.2-0.7c0.5,0,1,0.3,1.5,0.9c0.5,0.6,0.7,1.1,0.7,1.7C258.2,41.9,258,44.4,257.4,48.3z"
				/>
			<path class="st1" d="M318.7,45.2c-2.4,2.1-5.7,4.1-10,6c-1.5,0.7-3.1,1.3-4.7,1.9c-1.6,0.6-2.6,1-3.1,1.1
				c0.2,6.1,0.4,11.3,0.4,15.6c0,1.4,0.2,2.5,0.5,3.4c0.3,0.9,0.5,1.4,0.5,1.7c0,0.5-0.3,1-0.8,1.4c-0.5,0.4-1.1,0.6-1.7,0.6
				c-0.7,0-1.2-0.5-1.4-1.6c0-0.1-0.1-0.6-0.2-1.3c-0.1-0.8-0.2-1.9-0.2-3.4c0-3.9-0.2-10.3-0.4-19.2c-0.2-4.5-0.2-7.7-0.2-9.6
				c0-1.6,0-3.1,0.1-4.5c0-1.4,0.1-2.3,0.1-2.8c-3.1,0.8-5.9,1.7-8.2,2.6c-0.7,0.3-1.8,0.9-3.1,1.7c-0.6,0.3-1.2,0.7-1.8,1
				s-1,0.4-1.3,0.4c-0.4,0-0.7-0.2-1-0.5c-0.3-0.3-0.4-0.8-0.4-1.3c0-0.6,0.9-1.5,2.8-2.4c1.9-1,4.2-1.9,6.9-2.8
				c2.7-0.9,5.2-1.6,7.5-2c2.7-0.5,5.7-0.7,9-0.7c4.5,0,8.1,0.6,10.7,1.8c2.6,1.2,3.9,2.9,3.9,5.3C322.3,40.6,321.1,43.1,318.7,45.2
				z M315.7,34.6c-2.1-0.7-4.8-1-7.9-1c-2.3,0-4.6,0.2-7,0.4c-0.1,0.4-0.1,1.3-0.2,2.8c-0.1,1.4-0.1,2.8-0.1,4.1l0.1,5.5
				c0,1.2,0.1,2.7,0.1,4.6c1-0.1,3.3-0.8,6.7-2.2c3.3-1.4,6.1-3.1,8.3-4.8c2.2-1.8,3.4-3.7,3.4-5.7
				C318.9,36.5,317.8,35.3,315.7,34.6z"/>
			<path class="st1" d="M360,70.2c0.3,0.4,0.5,0.7,0.5,0.9c0,0.6-0.3,1.3-0.7,2.1c-0.5,0.8-1,1.2-1.5,1.2c-0.9,0-1.5-0.5-1.9-1.6
				c-0.4-1-0.7-2.3-0.7-3.7c0-1.2,0.1-4.8,0.2-10.8l0.1-2.8c0-1.1-0.3-2-0.9-2.5c-2.2,3.8-4.3,7.1-6.3,9.9c-1.9,2.8-4.4,5.4-7.4,7.9
				c-3,2.5-6.1,3.7-9.4,3.7c-1.6,0-2.8-0.5-3.7-1.5c-0.9-1-1.3-2.3-1.3-3.9c0-2,0.9-4.7,2.7-8.2c1.8-3.5,4.1-7,6.9-10.6
				c2.8-3.6,5.6-6.5,8.4-8.8c1.8-1.5,3.3-2.5,4.4-3c1.1-0.5,2.1-0.8,2.9-0.8c0.8,0,1.6,0.3,2.5,0.7c0.8,0.5,1.6,1.2,2.2,2.1
				c0.6,0.9,0.9,1.9,0.9,3.1c0,1.5-0.4,3-1.3,4.4l1.3-0.4c0.5,0,0.9,0.7,1,2c0,0.8,0.1,2.4,0.2,4.9c0.1,2.4,0.1,4.5,0.2,6.1
				c0,1.6,0.1,3.2,0.2,4.8c0,1.5,0.1,2.8,0.2,3.7C359.4,69.4,359.6,69.8,360,70.2z M340.8,67.4c2.5-2,4.7-4.4,6.7-7.2
				c2-2.8,4.2-6.2,6.6-10.2c0.6-1.5,0.9-3.1,0.9-4.9c0-1-0.3-2-0.9-2.7c-0.6-0.8-1.5-1.2-2.5-1.2c-1.2,0-2.8,0.9-4.8,2.5
				c-2.2,1.9-4.6,4.4-7.1,7.6c-2.5,3.2-4.6,6.3-6.2,9.4c-1.6,3.1-2.5,5.5-2.5,7.3c0,1.5,0.7,2.2,2.1,2.2
				C335.7,70.4,338.3,69.4,340.8,67.4z"/>
			<path class="st1" d="M399,83.8c-1.5,3.2-3.4,5.8-5.5,7.8c-2.1,2-4.4,3.7-6.7,5c-2.3,1.3-4.3,1.9-6,1.9c-0.9,0-1.6-0.2-2-0.7
				c-0.4-0.5-0.6-1-0.6-1.7c0-0.6,1.1-1.3,3.4-2.1c3.4-1.1,6.5-2.9,9.4-5.5c2.2-2,3.9-4.3,4.9-6.8c1-2.5,1.6-5.1,1.6-7.8
				c0-3-0.2-5.7-0.6-8.2c-0.4-2.5-1-5.6-1.8-9.2c-0.9-3.8-1.5-7.1-1.9-9.8c-0.8,2.3-2.2,5.1-3.9,8.3c-1.8,3.2-3.9,6.4-6.3,9.4
				c-2.3,2.8-4.4,5-6.3,6.4c-1.9,1.4-3.7,2.1-5.4,2.1c-1.5,0-2.6-0.6-3.3-1.8c-0.7-1.2-1.1-2.8-1.1-4.8c0-3.4,1-7.4,3.1-12
				c2.1-4.6,4.7-8.5,7.9-11.8c3.1-3.3,6.2-4.9,9.3-4.9c1,0,1.9,0.4,2.4,1.1c0.6,0.7,0.9,1.6,0.9,2.7c0,1.3-0.3,2-0.8,2
				c-0.2,0-0.3-0.2-0.6-0.6c-0.2-0.4-0.5-0.7-0.8-1c-0.3-0.3-0.6-0.4-1-0.4c-2.5,0-5.1,1.4-7.8,4.3c-2.6,2.8-4.8,6.2-6.5,10
				c-1.7,3.8-2.6,7-2.6,9.4c0,1.3,0.2,2.3,0.6,2.9s1,0.9,1.8,0.9c1.2,0,2.6-0.7,4.3-2.1c1.7-1.4,3.7-3.6,6.1-6.6
				c2.1-2.6,4-5.7,5.7-9.2c1.7-3.5,3-6.9,3.9-10.1c0.1-0.3,0.3-0.5,0.5-0.7c0.2-0.2,0.5-0.3,0.8-0.3c0.5,0,0.9,0.1,1.4,0.4
				c0.5,0.3,0.7,0.6,0.7,0.9c0,0.2,0,0.4-0.1,0.6c-0.1,0.2-0.1,0.4-0.2,0.4c0.3,2.7,1.2,7,2.5,12.8c0.9,4.1,1.7,7.5,2.1,10.3
				c0.5,2.8,0.7,5.5,0.7,8.1C401.3,77,400.6,80.6,399,83.8z"/>
			<path class="st1" d="M437.4,55.9c0,0.9-0.7,2.9-2,5.9c-1.3,3-3.3,5.9-6,8.5c-2.7,2.6-6,3.9-9.8,3.9c-3.2,0-5.9-1-8-3
				c-2.1-2-3.2-5.1-3.2-9.2c0-3.9,0.9-7.7,2.7-11.6c1.8-3.8,4.1-6.9,7-9.4c2.9-2.4,5.9-3.6,9-3.6c1.8,0,3.4,0.4,4.7,1.2
				c1.3,0.8,1.9,2,1.9,3.6c0,1.7-1,3.4-3,5.1c-2,1.6-4.5,3.1-7.7,4.3c-3.1,1.2-6.4,2.1-9.7,2.7c-0.6,2.3-0.9,4.5-0.9,6.7
				c0,2.9,0.7,5.1,2.1,6.7c1.4,1.6,3.3,2.4,5.9,2.4c3.8,0,7-1.4,9.4-4.1c2.4-2.7,4.4-5.8,6-9.3c0.1-0.2,0.3-0.6,0.5-1.2
				c0.2-0.6,0.5-0.9,0.7-0.9C437.2,54.8,437.4,55.2,437.4,55.9z M429.1,41.2c-0.8-0.4-1.8-0.7-2.9-0.7c-1.9,0-3.7,0.6-5.5,1.9
				c-1.7,1.2-3.2,2.7-4.4,4.5c-1.2,1.7-1.9,3.3-2.3,4.6c2.3-0.2,4.7-0.9,7.3-1.9c2.5-1,4.7-2.2,6.4-3.4c1.7-1.2,2.6-2.3,2.6-3.1
				C430.3,42.2,429.9,41.6,429.1,41.2z"/>
		</g>
	</g>
	<path class="st1" d="M53.6,11.4"/>
	<path class="st1" d="M50.2,35.6c-1.3-0.4-1.8-8.2,2.4-13.7c5.3-6.8,15.1-6.2,16.4-6.1C68,18,66.8,19.8,66,21.1
		c-1.9,2.7-3.2,4.6-5.5,6.2c-1.3,0.9-1.5,0.7-2.9,1.6C52.4,31.8,51.2,35.9,50.2,35.6z"/>
</g>
</svg>
